<svg xmlns="http://www.w3.org/2000/svg" width="560" height="560" viewBox="0 0 80 80" shape-rendering="crispEdges"><rect width="100%" height="100%" fill="#e8dcc0"/><g stroke-width="1" transform="translate(18 18)"><path stroke="#862101" d="M18 1.5h1M24 1.5h1M17 2.5h2M22 2.5h1M24 2.5h1M28 2.5h2M12 3.5h1M16 3.5h3M21 3.5h3M26 3.5h2M29 3.5h1M22 4.5h6M29 4.5h1M28 5.5h2M31 5.5h1M33 5.5h2M30 6.5h3M34 6.5h1M22 7.5h5M32 7.5h2M26 8.5h4M33 8.5h3M22 9.5h4M28 9.5h3M34 9.5h1M36 9.5h3M21 10.5h7M30 10.5h2M35 10.5h1M37 10.5h2M20 11.5h10M31 11.5h2M36 11.5h1M19 12.5h12M32 12.5h2M37 12.5h1M18 13.5h14M33 13.5h2M37 13.5h2M40 13.5h1M17 14.5h1M23 14.5h1M28 14.5h5M34 14.5h2M38 14.5h2M41 14.5h1M16 15.5h2M23 15.5h1M28 15.5h5M34 15.5h2M38 15.5h3M1 16.5h3M15 16.5h1M18 16.5h5M24 16.5h2M28 16.5h6M35 16.5h1M2 17.5h1M14 17.5h1M16 17.5h3M23 17.5h11M35 17.5h2M39 17.5h1M3 18.5h1M13 18.5h2M16 18.5h3M23 18.5h12M36 18.5h1M39 18.5h2M3 19.5h1M12 19.5h3M16 19.5h3M21 19.5h14M36 19.5h1M39 19.5h3M11 20.5h4M16 20.5h3M21 20.5h14M36 20.5h1M39 20.5h4M10 21.5h5M16 21.5h5M23 21.5h12M36 21.5h1M39 21.5h1M1 22.5h4M7 22.5h1M9 22.5h6M16 22.5h3M23 22.5h12M36 22.5h1M39 22.5h4M2 23.5h3M7 23.5h1M9 23.5h6M16 23.5h3M23 23.5h12M36 23.5h1M39 23.5h4M3 24.5h2M7 24.5h1M9 24.5h7M18 24.5h17M36 24.5h1M39 24.5h1M4 25.5h1M7 25.5h1M9 25.5h7M18 25.5h17M36 25.5h1M39 25.5h2M4 26.5h1M7 26.5h2M10 26.5h6M19 26.5h7M28 26.5h6M35 26.5h2M39 26.5h1M1 27.5h3M8 27.5h1M10 27.5h9M26 27.5h8M35 27.5h1M40 27.5h2M3 28.5h3M8 28.5h2M11 28.5h8M26 28.5h7M34 28.5h2M38 28.5h3M4 29.5h2M8 29.5h2M11 29.5h22M34 29.5h2M38 29.5h1M41 29.5h1M6 30.5h1M9 30.5h2M12 30.5h20M33 30.5h2M37 30.5h2M6 31.5h1M10 31.5h2M13 31.5h18M32 31.5h2M37 31.5h1M5 32.5h1M7 32.5h1M11 32.5h2M14 32.5h16M31 32.5h2M36 32.5h1M38 32.5h1M4 33.5h3M8 33.5h1M12 33.5h2M16 33.5h12M30 33.5h2M35 33.5h1M37 33.5h2M7 34.5h1M9 34.5h1M13 34.5h3M18 34.5h8M28 34.5h3M34 34.5h1M38 34.5h1M9 35.5h2M14 35.5h4M26 35.5h4M33 35.5h3M8 36.5h4M17 36.5h10M32 36.5h4M7 37.5h1M9 37.5h1M11 37.5h1M13 37.5h1M30 37.5h2M34 37.5h1M14 38.5h2M28 38.5h4M34 38.5h1M37 38.5h2M13 39.5h2M16 39.5h12M29 39.5h3M37 39.5h2M12 40.5h1M14 40.5h1M16 40.5h1M18 40.5h1M20 40.5h2M23 40.5h1M25 40.5h2M29 40.5h3M37 40.5h2M18 41.5h2M24 41.5h2M29 41.5h3M18 42.5h1M24 42.5h1M30 42.5h2"/><path stroke="#d46a1e" d="M11 4.5h1M13 4.5h1M16 4.5h6M12 5.5h1M14 5.5h14M7 6.5h1M11 6.5h19M8 7.5h14M27 7.5h5M7 8.5h11M30 8.5h3M7 9.5h1M9 9.5h7M18 9.5h4M31 9.5h3M4 10.5h1M8 10.5h6M16 10.5h5M32 10.5h3M5 11.5h1M7 11.5h6M14 11.5h6M33 11.5h3M4 12.5h1M6 12.5h6M13 12.5h6M34 12.5h3M5 13.5h6M12 13.5h6M35 13.5h2M4 14.5h6M11 14.5h6M36 14.5h2M5 15.5h5M11 15.5h5M36 15.5h2M5 16.5h4M10 16.5h5M36 16.5h3M4 17.5h5M10 17.5h4M37 17.5h2M4 18.5h4M9 18.5h4M37 18.5h2M4 19.5h4M9 19.5h3M37 19.5h2M4 20.5h4M9 20.5h2M37 20.5h2M4 21.5h4M9 21.5h1M37 21.5h2M5 22.5h2M37 22.5h2M5 23.5h2M37 23.5h2M5 24.5h2M37 24.5h2M5 25.5h2M37 25.5h2M5 26.5h2M37 26.5h2M5 27.5h3M36 27.5h3M6 28.5h2M36 28.5h2M6 29.5h2M36 29.5h2M7 30.5h2M35 30.5h2M7 31.5h3M34 31.5h3M8 32.5h3M33 32.5h3M9 33.5h3M32 33.5h3M10 34.5h3M31 34.5h3M11 35.5h3M30 35.5h3M12 36.5h5M27 36.5h5M14 37.5h16M16 38.5h12"/><path stroke="#280900" d="M18 8.5h8M16 9.5h2M26 9.5h2M14 10.5h2M28 10.5h2M13 11.5h1M30 11.5h1M12 12.5h1M31 12.5h1M11 13.5h1M32 13.5h1M10 14.5h1M33 14.5h1M10 15.5h1M33 15.5h1M9 16.5h1M34 16.5h1M9 17.5h1M34 17.5h1M8 18.5h1M35 18.5h1M8 19.5h1M35 19.5h1M8 20.5h1M35 20.5h1M8 21.5h1M35 21.5h1M8 22.5h1M35 22.5h1M8 23.5h1M35 23.5h1M8 24.5h1M35 24.5h1M8 25.5h1M35 25.5h1M9 26.5h1M34 26.5h1M9 27.5h1M34 27.5h1M10 28.5h1M33 28.5h1M10 29.5h1M33 29.5h1M11 30.5h1M32 30.5h1M12 31.5h1M31 31.5h1M13 32.5h1M30 32.5h1M14 33.5h2M28 33.5h2M16 34.5h2M26 34.5h2M18 35.5h8"/><path stroke="#f6cc29" d="M18 14.5h5M24 14.5h4M18 15.5h5M24 15.5h4M16 16.5h2M23 16.5h1M26 16.5h2M15 17.5h1M19 17.5h4M15 18.5h1M19 18.5h4M15 19.5h1M19 19.5h2M15 20.5h1M19 20.5h2M15 21.5h1M21 21.5h2M15 22.5h1M19 22.5h4M15 23.5h1M19 23.5h4M16 24.5h2M16 25.5h2M16 26.5h3M26 26.5h2M19 27.5h7M19 28.5h7"/></g></svg>